<svg xmlns="http://www.w3.org/2000/svg" viewBox="0 0 2359.45 2092.85"><g id="Layer_2" data-name="Layer 2"><g id="Layer_1-2" data-name="Layer 1"><path d="M2359.25,1433.16v-224c0-31-.46-31.88-26.76-47.87-38.71-23.53-77.32-47.25-116.31-70.32-9.43-5.58-15.08-12.18-16.09-23.27-.78-8.59-2.66-17.11-4.5-25.56-24.93-114.5-82.22-210.41-169.11-288.21-43.4-38.87-93-69-147.09-91.38a520.58,520.58,0,0,0-142.53-37c-28.42-3.15-57.1-5.19-85.83-4.08-6,.23-12,0-18-.31-4.62-.21-7.32-3-7.91-7.45-.71-5.27-1.09-10.6-1.36-15.91-.64-12.65-1-25.32-1.73-38-2-34.59-4.28-69.17-6.34-103.77q-3.57-59.86-7-119.75c-1.54-26.6-2.17-21.36,16.8-32.88,52.32-31.79,87.52-91.28,77.16-163.79-11.79-82.48-85.94-152.11-186.36-137.76-61.14,8.74-105,43.87-127.66,102.3-28.91,74.42-.79,156.78,67,198.88,3.4,2.1,6.91,4,10.44,5.9,5.27,2.79,7.5,7,7.2,13-.82,16-1.17,32-2.08,47.95-2,35.93-4.36,71.84-6.44,107.76-1.61,27.95-2.31,56-4.79,83.83-1.47,16.61-2.06,33.23-3.19,49.84-.53,7.72-2.37,9.54-9.55,9.91-6.65.33-13.33.23-20,.23q-368,0-736,.08c-40,0-80,3.15-119.06,12.09q-225.87,51.69-346.6,249.87c-33.51,55.21-55,115.18-66.13,178.92-4.11,23.45-.49,18.36-20.84,30.78-38.11,23.25-76.35,46.28-114.51,69.45C.84,1176.87.2,1178,.19,1206q-.07,127-.06,254c0,18.67.56,37.35-.1,56-.53,14.88,5,24.92,17.79,32.94,27.6,17.28,57.17,31.53,82.46,52.46,1.47,1.21,3.61,1.67,5.49,2.32,9.09,3.13,16.75,8.21,21.91,16.47,1.64,2.62,3.24,3,6.36,2.84,9.07-.49,16.18,4.21,17.93,12.79,3.32,16.3,10.12,31.4,14,47.6,57.31,241.73,271,406.29,506.6,409.31,21.32.27,42.65.06,64,.06h442q248,0,496,.11c38.14.05,75.77-3.35,113-11.74,151-34.07,266.17-118,346.25-250,35.24-58.1,57.3-121.3,67.54-188.54,1.08-7.06,3.3-13.32,11.19-14.63,6.39-1.06,10.82-4.5,15-9a26.72,26.72,0,0,1,13.62-8c7.41-1.66,13.3-6,19.22-10.31,8-5.81,14.56-13.75,25.42-14.94,2.16-.24,4.28-3,6-4.94,4.47-5.16,10.36-8.32,16-11.8,10.77-6.65,21.39-13.61,32.53-19.59,13.94-7.48,19.55-18.54,19.18-34.25C2358.79,1487.82,2359.25,1460.48,2359.25,1433.16Zm-331.48,187.57c-.27,85.41-31.16,158.73-92.59,218.39-45.82,44.52-101,71-164,80.79-17,2.64-34.53,3.27-51.81,3.3-76.66.16-153.32-.43-230-.4q-279,.12-558,.54-148,.12-296,0c-63.63-.17-122.65-16.74-174.62-54-83.53-60-128.14-141.67-129-244.72-1.22-148.65-.31-297.32-.31-446,0-29.33-.23-58.66,0-88,.72-75.81,26.28-142.4,77-198.52,48.08-53.18,107.81-85.58,179.22-96.52,28.63-4.39,57.19-2.58,85.78-3.15,21.32-.42,42.66-.08,64-.08h442q274,0,548,0c47.52,0,92.79,10.07,134.6,32.3,93.46,49.68,148.69,126.8,163.11,232.31a280.34,280.34,0,0,1,2.72,37.85C2027.93,1270.09,2028.33,1445.41,2027.77,1620.73Z"/><path d="M1469.35,1564.31q-137.92-.06-275.84,0H1075.62q-79,0-157.91,0-8,0-16,.3c-4.77.18-7.11,3-7.54,7.55-.26,2.64-.34,5.32-.34,8,0,26.89-1.55,25.62,24.44,25.63q143.88.06,287.76,0c32.24,0,29.28-2.14,29.31,28.86,0,16.64-1.43,33.24.59,49.9,8.1,66.82,76.3,96.44,120.5,84.45,50.27-13.64,76.73-57.28,76.29-93.6-.17-14,0-28,.06-42,0-5.33-.11-10.67.16-16,.46-8.77,2.3-10.89,10.48-11.36,7.31-.41,14.66-.17,22-.3,6.66-.11,13.32-.17,20-.59a6.35,6.35,0,0,0,6.35-6.35c.27-4,.44-8,.41-12C1492,1562.76,1494.15,1564.32,1469.35,1564.31ZM1391.21,1674c-2.1,32.2-26.74,55-57.48,54.87-23.8-.09-45.78-15.63-53.35-38.06-1.69-5-3.22-10.35-3.34-15.57-.42-20-.38-40-.19-59.92.05-6,2.51-8.48,8.68-8.6,16-.3,32-.1,47.94-.1v-.08c16,0,32-.23,48,.1,7.67.15,9.9,2.31,10,9.44C1391.65,1635.35,1392.47,1654.73,1391.21,1674Z"/><path d="M938.63,1299.24q-16.56,17.31-33.38,34.37c-6.22,6.31-7.64,6.19-14.44-.67-15.93-16.06-31.75-32.22-47.72-48.23q-10.58-10.61-21.58-20.75c-7.52-6.93-8.48-7-16.21.58-19.91,19.62-39.58,39.49-59.35,59.25-3.76,3.76-7.46,7.59-11.34,11.23-2.71,2.53-5.9,3.18-8.76.35-12.76-12.64-25.39-25.41-38.13-38.08-3.79-3.76-2.52-7.08.64-10.26q30.3-30.4,60.64-60.78,6.35-6.36,12.57-12.83c3.41-3.53,3.08-7-.3-10.39q-24-24-48-48c-8.46-8.47-16.77-17.1-25.19-25.61-3.41-3.45-3.6-6.78-.1-10.28,13.61-13.58,27.2-27.19,40.36-40.36,7.4,2.49,10.79,7.66,15,11.79,18.45,18.26,36.73,36.68,55.11,55q5.64,5.63,11.48,11.07c3,2.76,6,2.12,8.77-.36,3.43-3.14,6.69-6.47,10-9.76q27.55-27.49,55.09-55c3.3-3.29,6.54-6.63,9.93-9.82,2.76-2.59,5.85-3,8.68-.16q19.09,19,38.1,38.12c2.74,2.75,3.22,5.72.5,8.69-3.14,3.44-6.4,6.77-9.69,10.06q-27.5,27.55-55,55.08c-3.29,3.3-6.51,6.66-9.74,10-3.48,3.62-2.78,7.09.46,10.41,3.72,3.81,7.42,7.64,11.18,11.4,20.22,20.26,40.52,40.44,60.65,60.78C944.53,1292,944.44,1293.17,938.63,1299.24Z"/><path d="M1671.1,1287.49c3.59,3.62,2.81,7.14-.42,10.39-11.73,11.81-23.42,23.66-35.33,35.28-5.38,5.25-7.38,5.17-13.32-.63-13.33-13-26.44-26.29-39.64-39.46-9.9-9.88-19.7-19.85-29.72-29.61-7.36-7.16-8.37-7.2-16.14.51-17.49,17.34-34.75,34.92-52.17,52.35-6.11,6.12-12.39,12.08-18.64,18.06-3.59,3.43-7.17,2.8-10.44-.46q-18.39-18.33-36.67-36.76c-2.73-2.76-2.82-6-.22-8.85,3.58-3.93,7.36-7.7,11.12-11.47q28.23-28.27,56.49-56.52c2.35-2.35,4.64-4.77,6.93-7.19,2.65-2.81,3-5.87.35-8.79-3.59-3.92-7.35-7.7-11.12-11.47q-28.23-28.27-56.49-56.51c-2.35-2.36-4.65-4.77-6.93-7.19-2.64-2.78-3.29-6.06-.53-8.82,14-14,26.9-29.25,42.39-41.11,6.74,2.88,10.24,7.93,14.44,12.1,18.91,18.75,37.68,37.64,56.56,56.44,3.29,3.28,6.7,6.46,10.26,9.44,2.32,1.94,5,1.59,7.19-.41q5.16-4.71,10.11-9.64c18.86-18.8,37.63-37.7,56.57-56.43,4.18-4.13,7.55-9.43,15.21-11.58,13.15,13,26.81,26.48,40.43,40,3.66,3.63,2.49,7.2-.67,10.38q-23.22,23.4-46.51,46.72c-8.46,8.49-17,16.88-25.3,25.55-5.27,5.53-5.29,7.66.39,13.43,20.09,20.4,40.39,40.6,60.6,60.88C1663.64,1279.89,1667.35,1283.71,1671.1,1287.49Z"/></g></g></svg>