<svg xmlns="http://www.w3.org/2000/svg" xmlns:xlink="http://www.w3.org/1999/xlink" viewBox="0 0 4237.31 5979.57"><defs><style>.cls-1{opacity:0.4;fill:url(#radial-gradient);}</style><radialGradient id="radial-gradient" cx="2067.98" cy="2887.34" r="4513" gradientUnits="userSpaceOnUse"><stop offset="0"/><stop offset="1" stop-color="#fff" stop-opacity="0"/></radialGradient></defs><g id="Layer_2" data-name="Layer 2"><g id="Layer_1-2" data-name="Layer 1"><path class="cls-1" d="M4237.31,194.78v-.57H3976.49V0h-.58V194.21H3504.66V0h-.58V194.21H3032.83V0h-.58V194.21H2561V0h-.58V194.21H2089.17V0h-.58V194.21H1617.34V0h-.58V194.21H1145.51V0h-.58V194.21H673.67V0h-.57V194.21H0v.57H673.1V666H0v.57H673.1v471.26H0v.57H673.1V1609.7H0v.57H673.1v471.26H0v.57H673.1v471.26H0v.57H673.1v471.26H0v.57H673.1V3497H0v.57H673.1v471.26H0v.57H673.1v471.26H0v.58H673.1v471.25H0v.58H673.1v471.25H0v.58H673.1v471.25H0v.58H673.1v122.82h.57V5856.75h471.26v122.82h.58V5856.75h471.25v122.82h.58V5856.75h471.25v122.82h.58V5856.75h471.25v122.82h.58V5856.75h471.25v122.82h.58V5856.75h471.25v122.82h.58V5856.75h471.25v122.82h.58V5856.75h260.82v-.58H3976.49V5384.92h260.82v-.58H3976.49V4913.09h260.82v-.58H3976.49V4441.26h260.82v-.58H3976.49V3969.42h260.82v-.57H3976.49V3497.59h260.82V3497H3976.49V3025.76h260.82v-.57H3976.49V2553.93h260.82v-.57H3976.49V2082.1h260.82v-.57H3976.49V1610.27h260.82v-.57H3976.49V1138.44h260.82v-.57H3976.49V666.61h260.82V666H3976.49V194.78Zm-733.23,0V666H3032.83V194.78ZM2089.17,3968.85V3497.59h471.25v471.26Zm471.25.57v471.26H2089.17V3969.42ZM2089.17,3497V3025.76h471.25V3497Zm0-471.83V2553.93h471.25v471.26Zm0-471.83V2082.1h471.25v471.26Zm0-471.83V1610.27h471.25v471.26Zm0-471.83V1138.44h471.25V1609.7Zm-.58,0H1617.34V1138.44h471.25Zm0,.57v471.26H1617.34V1610.27Zm0,471.83v471.26H1617.34V2082.1Zm0,471.83v471.26H1617.34V2553.93Zm0,471.83V3497H1617.34V3025.76Zm0,471.83v471.26H1617.34V3497.59Zm0,471.83v471.26H1617.34V3969.42Zm0,471.84v471.25H1617.34V4441.26Zm.58,0h471.25v471.25H2089.17Zm471.83,0h471.25v471.25H2561Zm0-.58V3969.42h471.25v471.26Zm0-471.83V3497.59h471.25v471.26Zm0-471.83V3025.76h471.25V3497Zm0-471.83V2553.93h471.25v471.26Zm0-471.83V2082.1h471.25v471.26Zm0-471.83V1610.27h471.25v471.26Zm0-471.83V1138.44h471.25V1609.7Zm0-471.83V666.61h471.25v471.26Zm-.58,0H2089.17V666.61h471.25Zm-471.83,0H1617.34V666.61h471.25Zm-471.83,0H1145.51V666.61h471.25Zm0,.57V1609.7H1145.51V1138.44Zm0,471.83v471.26H1145.51V1610.27Zm0,471.83v471.26H1145.51V2082.1Zm0,471.83v471.26H1145.51V2553.93Zm0,471.83V3497H1145.51V3025.76Zm0,471.83v471.26H1145.51V3497.59Zm0,471.83v471.26H1145.51V3969.42Zm0,471.84v471.25H1145.51V4441.26Zm0,471.83v471.25H1145.51V4913.09Zm.58,0h471.25v471.25H1617.34Zm471.83,0h471.25v471.25H2089.17Zm471.83,0h471.25v471.25H2561Zm471.83,0h471.25v471.25H3032.83Zm0-.58V4441.26h471.25v471.25Zm0-471.83V3969.42h471.25v471.26Zm0-471.83V3497.59h471.25v471.26Zm0-471.83V3025.76h471.25V3497Zm0-471.83V2553.93h471.25v471.26Zm0-471.83V2082.1h471.25v471.26Zm0-471.83V1610.27h471.25v471.26Zm0-471.83V1138.44h471.25V1609.7Zm0-471.83V666.61h471.25v471.26Zm-.58-943.09V666H2561V194.78Zm-471.83,0V666H2089.17V194.78Zm-471.83,0V666H1617.34V194.78Zm-471.83,0V666H1145.51V194.78Zm-943.09,0h471.26V666H673.67Zm0,471.83h471.26v471.26H673.67Zm0,471.83h471.26V1609.7H673.67Zm0,471.83h471.26v471.26H673.67Zm0,471.83h471.26v471.26H673.67Zm0,471.83h471.26v471.26H673.67Zm0,471.83h471.26V3497H673.67Zm0,471.83h471.26v471.26H673.67Zm0,471.83h471.26v471.26H673.67Zm0,471.84h471.26v471.25H673.67Zm0,471.83h471.26v471.25H673.67Zm0,943.08V5384.92h471.26v471.25Zm471.84,0V5384.92h471.25v471.25Zm471.83,0V5384.92h471.25v471.25Zm471.83,0V5384.92h471.25v471.25Zm471.83,0V5384.92h471.25v471.25Zm471.83,0V5384.92h471.25v471.25Zm943.08,0H3504.66V5384.92h471.25Zm0-471.83H3504.66V4913.09h471.25Zm0-471.83H3504.66V4441.26h471.25Zm0-471.83H3504.66V3969.42h471.25Zm0-471.83H3504.66V3497.59h471.25Zm0-471.83H3504.66V3025.76h471.25Zm0-471.83H3504.66V2553.93h471.25Zm0-471.83H3504.66V2082.1h471.25Zm0-471.83H3504.66V1610.27h471.25Zm0-471.83H3504.66V1138.44h471.25Zm0-471.83H3504.66V666.61h471.25Zm0-471.83H3504.66V194.78h471.25Z"/></g></g></svg>