<svg xmlns="http://www.w3.org/2000/svg" viewBox="0 0 405.1 269.32"><g id="Layer_2" data-name="Layer 2"><g id="Layer_1-2" data-name="Layer 1"><path d="M318.21,189.88A77.08,77.08,0,0,0,292.83,209c-7.77,8.85-6.33,15.54,4,20.6-9.29,12.1-29.41,14.2-40.66,4.25-2.62-2.32-4.69-5.25-4.26-8.68,1.64-13.38,5.26-26,18.16-33.08s26.35-13.55,39.24-20.89c32-18.23,59.5-41.5,81.26-71.32,8.52-11.68,14.16-24.57,14.49-39.24.4-17.22-13.32-28.23-30.18-24.55-13.74,3-29.89,22.16-30.53,36.23-.37,8.13,4.14,13.31,12.27,14,9.07.78,16.64-2.41,23-8.85a132.63,132.63,0,0,0,10.73-13.15c.85-1.12,1.57-3.21,3.17-2.68,1.94.64,1.17,2.86,1.16,4.42a28.06,28.06,0,0,1-1.85,9.26c-3.76,10.52-10.91,18.62-18.83,26.09-16.69,15.71-36.26,27.11-56.87,36.7-80.75,37.55-165.64,52.26-254.32,45-20.63-1.68-40.46-6.53-57.52-19.21-2.11-1.56-2.45-.39-2.85,1.34A88.68,88.68,0,0,0,0,188.07c.45,18,10,29,26.64,34.49,13.92,4.62,28.44,5.74,42.86,6.25,58,2,114.54-6.57,169.7-24.53,2.54-.83,5.7-3.25,7.84-1,1.88,2-.52,5-1.38,7.42-3.5,9.87-7.72,19.53-8.69,30.14-1.47,16.17,9.35,28.21,25.55,28.44a44.35,44.35,0,0,0,20.25-4.73c22.35-10.92,37.18-28.69,46.54-51.38A32.8,32.8,0,0,0,331.71,198C331,189.07,326.3,186.1,318.21,189.88Z"/><path d="M386.33,161.39c-14.14,8-29.24,12.76-45.63,12.79-4.16,0-8.32-.09-12.49-.06-.91,0-2.23-.22-2.46,1s.93,1.68,1.83,2c3.43,1.25,6.85,2.58,10.36,3.59,16.68,4.77,33.3,4.65,49.45-1.94,14-5.71,19-18.64,12.88-33.59A31.73,31.73,0,0,1,386.33,161.39Z"/><path d="M361.86,23c4.23-.9,8.52-1.64,12.66-2.87,4.67-1.38,7-4.84,7.11-10.06-.13-1-.21-2.34-.46-3.64-1.3-6.7-2.06-7.22-8.62-5.87-2.44.51-4.88,1.07-7.31,1.66a12.48,12.48,0,0,0-7.33,19.39A3.48,3.48,0,0,0,361.86,23Z"/></g></g></svg>